/* XPM */
static char *collectible_resized[] = {
/* columns rows colors chars-per-pixel */
"64 64 186 2 ",
"   c #5F1407",
".  c #56150E",
"X  c #5C140A",
"o  c #4D1715",
"O  c #4E1816",
"+  c #4B1A1C",
"@  c #531611",
"#  c #541A16",
"$  c #5C1A13",
"%  c #531C1A",
"&  c #591F1A",
"*  c #641405",
"=  c #6B1402",
"-  c #6F1805",
";  c #611608",
":  c #651A0E",
">  c #6C1C0D",
",  c #711703",
"<  c #741A05",
"1  c #7B1D07",
"2  c #741D0A",
"3  c #7B1E09",
"4  c #631C11",
"5  c #6B1F11",
"6  c #55201E",
"7  c #5C221D",
"8  c #75200D",
"9  c #7D220C",
"0  c #6E2113",
"q  c #62241C",
"w  c #6C251A",
"e  c #722313",
"r  c #7D2512",
"t  c #7E2815",
"y  c #712719",
"u  c #72281C",
"i  c #7C2C1C",
"p  c #4B1E21",
"a  c #4E2325",
"s  c #4D2629",
"d  c #4F2A2C",
"f  c #532323",
"g  c #5A2422",
"h  c #5E2925",
"j  c #50272A",
"k  c #532A2C",
"l  c #5B2C2B",
"z  c #542E31",
"x  c #553235",
"c  c #5D3434",
"v  c #563639",
"b  c #5A3739",
"n  c #56383B",
"m  c #5B3A3D",
"M  c #642721",
"N  c #622924",
"B  c #692C26",
"V  c #642D2B",
"C  c #6B2E28",
"Z  c #742E22",
"A  c #792D20",
"S  c #6C312A",
"D  c #7E3020",
"F  c #75342B",
"G  c #7B362B",
"H  c #7E382D",
"J  c #623533",
"K  c #643936",
"L  c #6C3834",
"P  c #633C3C",
"I  c #693C3B",
"U  c #753830",
"Y  c #67413F",
"T  c #5E3E41",
"R  c #623E41",
"E  c #3A5E58",
"W  c #5D4446",
"Q  c #5F484A",
"!  c #634244",
"~  c #6B4544",
"^  c #654649",
"/  c #634B4D",
"(  c #6B4B4D",
")  c #724C4B",
"_  c #644E50",
"`  c #6B4E51",
"'  c #665355",
"]  c #6B5354",
"[  c #685758",
"{  c #6B5C5D",
"}  c #755556",
"|  c #725B5D",
" . c #7B5C5D",
".. c #6D5F60",
"X. c #775F61",
"o. c #496963",
"O. c #6D6162",
"+. c #726566",
"@. c #7B6566",
"#. c #776867",
"$. c #7A6768",
"%. c #746A6B",
"&. c #7B6A6B",
"*. c #697674",
"=. c #767171",
"-. c #7B7374",
";. c #7F7778",
":. c #7E7E7E",
">. c #81250E",
",. c #81280F",
"<. c #812712",
"1. c #832A15",
"2. c #892E16",
"3. c #842D1A",
"4. c #8A2F18",
"5. c #85311D",
"6. c #8D331C",
"7. c #90361E",
"8. c #91381F",
"9. c #853423",
"0. c #893624",
"q. c #8A3926",
"w. c #853728",
"e. c #853A2C",
"r. c #8B3B2B",
"t. c #903720",
"y. c #943B24",
"u. c #933E29",
"i. c #843C30",
"p. c #8B3F30",
"a. c #8F402F",
"s. c #91402D",
"d. c #8E4132",
"f. c #904130",
"g. c #826B6D",
"h. c #856E70",
"j. c #847375",
"k. c #8A7375",
"l. c #8B7778",
"z. c #837C7C",
"x. c #8C7B7D",
"c. c #907777",
"v. c #907C7D",
"b. c #927E80",
"n. c #838383",
"m. c #8E8485",
"M. c #8C8B8B",
"N. c #938283",
"B. c #968788",
"V. c #9A8788",
"C. c #948B8C",
"Z. c #9B8C8D",
"A. c #9D908F",
"S. c #978F90",
"D. c #8F9191",
"F. c #949393",
"G. c #9B9495",
"H. c #9E9798",
"J. c #949B9A",
"K. c #9C9C9C",
"L. c #A19596",
"P. c #A49798",
"I. c #A39C9C",
"U. c #A99D9E",
"Y. c #93A19F",
"T. c #A79FA0",
"R. c #AB9FA0",
"E. c #A4A4A4",
"W. c #AAA3A4",
"Q. c #A5AFAE",
"!. c #ACACAC",
"~. c #B0A7A7",
"^. c #B2AEAE",
"/. c #B3AFB0",
"(. c #AFB0B0",
"). c #B3B3B3",
"_. c #B9B5B5",
"`. c #BCBCBC",
"'. c #C1BEBE",
"]. c #BFC0C0",
"[. c #C4C4C4",
"{. c #C7C8C8",
"}. c #CDCDCD",
"|. c #CFD0CF",
" X c #CFD0D0",
".X c #D0D0D0",
/* pixels */
"n.).}..X!.:.:.M.]..X}.J.:.:.K..X|.[.n.:.:.(..X.X).:.:.M.]..X}.K.:.:.J.}.}.{.M.:.:.!..X.X`.:.:.n.`..X.XE.:.:.F.}.}.{.M.:.:.E.|..X",
"K.!.!.).E.K.I.E.(.(.(.E.K.K.E.(.).Q.T.K.K.Q.!.(.W.I.K.K.!.(.(.E.K.K.E.(.(.!.T.K.K.E.).!.!.K.K.E.!.(.!.E.I.K.E.!.(.(.E.K.K.E.(.(.",
"}.J.:.:.E.}.}.[.M.:.n.).}..X(.:.:.M.[.}.}.K.:.:.J.}.|.{.M.:.:.(.|.}._.n.:.M.].}.{.E.:.:.F.}.}.{.M.:.:.!.}.}.).n.:.n.`..X|.Q.:.:.",
"}.F.:.:.I.}.}.[.n.:.:.(..X.X(.:.:.n.{..X}.K.:.:.J.}.}.[.M.:.:.(..X|.).:.:.n.].|.}.E.:.:.F.}.}.{.M.:.:.!..X}.`.n.:.n.`..X|.E.:.:.",
"`.K.D.M.E.`.`.).F.M.D.^.].].!.D.D.F.`.`.`.I.M.D.T.`.].).J.M.M.!.`.].(.D.M.F.).].].E.M.D.K.].`.`.J.D.M.W.].].).D.D.D.(.`.`.E.M.F.",
"m.).{.{.!.n.n.D.].{.[.J.n.n.K.{.{.`.M.n.n.(.{.{.(.n.n.D.`._.T.x.%.&.D.{.{.].F.n.n.!.{.{.).n.n.M.`.{.{.E.n.n.F.[.{.].J.n.n.!.{.{.",
":.`.}..X(.n.:.M.{. X}.J.:.:.K.}.}.[.M.:.:.)..X.X).:.:.M.].R.X.c z W n.{.}.{.M.:.:.!..X.X`.:.n.n.`. X XE.:.:.F.}.|.{.D.:.b.E.}.}.",
"n.).{.{.!.n.n.D.].{.{.K.n.n.K.{.{.`.M.n.M.(.{.{.(.n.n.n.L.k.I f p x b.{.{.].D.n.n.!.{.}.).n.n.n.`.{.{.E.n.n.F.{.{.[.D.n.n.E.{.{.",
"`.K.D.F.E.`.`.).F.F.F.!.`.`.!.D.F.J.).`.`.E.M.D.E.`._.C.( P U S p ^ N.F.D.F.).`.`.E.M.D.K.`.`.`.J.C.D.Q.`.`.(.F.F.F.).`.`.E.F.D.",
"}.F.:.:.K.}..X].n.:.:.)..X.X(.:.:.n.{.|.}.J.:.:.J..X{.Z.x g G G & I $.%.-.M.]..X|.E.:.:.F.}.}.{.M.:.:.W.|.|._.n.:.n.`.}.|.E.:.:.",
"{.J.:.:.E.}.}.].M.:.b.(.|.}.(.:.:.M.[.}.}.J.b.:.K.}.{.B.x g H 9.0 4 J W +.n.`.}.}.E.:.:.F.}.{.{.M.b.:.Q.|.|._.n.:.n.`.}..XE.:.:.",
"E.W.(.Q.E.K.I.E.!.!.Q.E.E.E.E.!.!.E.T.E.T.E.Q.!.E.G.m. .l M H 9.2 ; o T m.!.E.E.E.E.!.!.E.E.E.E.E.Q.!.E.E.I.E.!.!.!.E.E.E.E.!.!.",
":.)..X.X!.:.:.M.{.|.}.J.:.:.J.}.}.[.M.:.n.(.|.|.^.O.m l 7 u e.9.5 ; o ^ U.[.M.:.:.E..X.X`.:.:.n.].|.|.E.:.:.D.}.|.{.M.:.:.E..X|.",
"n.)..X.XQ.b.:.M.[.}.}.G.:.:.J.}.}.{.n.:.:.(.|.|.!.[ d # 0 i e.9.2   o ^ U.[.M.z.:.!..X.X`.:.z.n.].|.}.E.:.:.F.{.|.{.D.:.:.E.|.|.",
"K.!.).).E.J.J.K.(.)./.E.J.J.E./.).!.I.J.K.Q.(.(.E.&.z # > t q.G 2 ; O T B.!.I.J.K.E.).).E.K.J.K.(./.).E.J.K.E.).).(.E.J.I.E.).(.",
"{.J.:.:.T.}. X`.M.:.n.)..X}.Q.b.:.M.[.}.}.J.:.b.F.B.c # 2 <.r.9.> ; @ k / -.).}.}.E.:.:.J.{. X{.M.:.:.Q.}.|.).n.:.n.`.}.|.E.:.:.",
"}.F.:.:.K.}.|.].n.:.n.).|.|./.:.:.M.[.|.}.J.:.:.F.B.b # 2 <.q.9.< * X # k Q T.}.}.I.:.:.F.}.|.{.D.:.:.!.|.}.`.:.:.n.`.|.|.E.:.:.",
"].K.M.M.E.].].`.D.M.M.(.].[.Q.M.M.F.`.[.].I.M.M.H.b.c & e 5.r.9.2 * * . o x C.].].E.M.M.J.].].].F.M.M.W.[.[.(.D.M.D._.].].E.M.D.",
"M.(.{.{.Q.M.n.D.].{.{.K.n.n.I.{.{.`.M.n.n.(.{.{.!.{ k 7 5.t.s.9.2 * =   o m %.n.M.Q.{.{._.n.n.M.`.{.{.E.n.n.F.[.{.[.F.n.n.E.{.{.",
"b.(.|.|.!.:.:.M.[.}.}.G.:.:.K.}.}.[.n.n.b.).}.`.S.Q d q 9.s.a.9.2 = = ; o m O.:.:.!.|..X).n.n.n.`.}.}.E.:.:.F.}.|.{.D.:.b.E.}.}.",
"n.).}.}.!.n.b.M.[.{.{.K.b.:.J.}.}.].M.n.:.(.{.H.` s p 7 5.s.a.9.2 = =   # m $.b.b.E.}.}.).n.n.n.`.}.}.T.:.n.F.{.{.{.M.b.:.Q.{.{.",
"`.K.D.F.J.I.C.M.z.M.F.!.`.`.!.F.F.J.).).).J.j.` s + O w 5.q.a.9.2 = = * . l @.G.Q.E.D.F.I._.`.).J.D.F.E.`.`.(.F.D.J.(.`.`.E.D.F.",
"}.F.:.:.m.l.` R T ..:.).}.}.(.:.:.M.{.|.{.j.n s p # : 8 r 3.r.0.9 < = * * $ J X.W.I.:.:.F.}.}.{.M.:.:.!.}.|._.n.:.n.`.|.|.E.:.:.",
"}.F.;.%.$.~ % O j / +.C.T.T.B.+.+.%.P.T.L.' a + O : < 9 9 1.r.0.<.< = = = * . c k.z.O.%.C.[._.R.-.+.+.m.T.T.A.$.+.%.G.T._.E.:.:.",
"E.E.G.| c B > 5 4 l n R ! ! R b n b R ! T z + @ : 2 1 1 >.3.r.0.9 1 = = = = * 4 J m m / x.G.&.^ m n m m ! ^ Y K b b R ^ $.J.!.W.",
":.).~.] % 5 r y u M g f 6 % % % % % # % # # % 4 2 1 3 3 ,.5.a.q.<.9 3 < = = = : . # # l  .] c % # 6 6 f 6 6 7 q M g p p m G..X}.",
"b._.~.` f Z w.r.e.e.G G F y > > > 5 > > > > > 2 1 1 1 3 ,.5.r.r.t.6.6.2.3 < 1 < < > > 0 V l 4 5 0 e i G G G G H H F V % m G..X}.",
"J.!.G.^ f B H w.w.w.r.w.0.3.1.<.r 3 1 1 1 1 1 1 1 1 1 <.3.5.q.u.u.y.y.7.>.1 1 1 1 1 9 8 4 4 w 1.1.5.9.w.r.r.q.r.w.G L ! +.K.).).",
"{.F.%.n p p g y t <.<.<.1.3.w.r.0.1.1 1 1 1 1 1 1 1 3 <.0.0.5.6.7.y.y.7.<.1 1 1 3 3 >.<.i G w.0.q.q.5.t <.<.<.t y g } Z.^.I.n.n.",
"}.F.%.Q x s + $ > 2 1 1 >.9.u.p.r.9.<.<.<.>.>.3 >.<.<.3.r.r.1.1.4.7.7.4.>.3 >.<.r r 1.5.r.r.r.q.q.0.1.9 1 1 2 > q c k.'. XE.:.:.",
"].K.n.:.$.R p O $ > 1 1 3 4.y.u.y.u.w.r.0.3.<.2.4.7.7.t.r.w.<.>.>.>.>.>.3 >.3.w.q.q.q.r.u.y.6.<.<.r 9 3 1 2 > 7 P &.I.`.[.E.M.M.",
"M.(.{.].H._ x x P B > 2 3 1.6.t.t.0.0.r.w.0.4.0.y.y.y.u.f.0.<.3 <.<.<.<.<.1.9.r.r.q.a.s.u.t.1.9 1 1 2 > > > M ~ x.^.F.M.n.E.[.[.",
":.).}.|.E.%.O.=.N.) & 4 8 9 >.<.>.<.1.<.<.3.r.u.s.s.y.s.d.0.r r 3.w.0.0.w.0.3.1.<.1.6.y.y.t.1.1 1 2 4 $ # 6 ~ A._.[.D.:.:.E..X|.",
"n.).}.}.!.n.n.M.^.k.~ N 4 > > 2 1 1 1 1 9 3.r.r.r.y.s.s.d.q.3.3.u.p.r.r.u.r.3.3 1 >.2.7.7.6.<.3 2 2 S b x n #._.{.[.D.n.:.W.{.}.",
"`.E.F.F.E.).`.(.F.z.+.~ f O $ : 1 1 1 1 9 1.t.6.2.5.r.f.d.r.r.r.p.r.3.3.t.y.t.4.>.1 >.>.<.>.>.3 : 6 ^ x.A.G.K.F.G.J.(._.`.E.J.F.",
"}.F.:.:.T.|..X].m.:.-.&.( ^ P M > 2 1 1 1 2.7.4.>.<.w.r.d.d.d.a.r.9.<.>.7.y.y.7.1.1 1 1 1 3 < 5 h m ] E.}.}._.n.:.n.`.|.|.E.:.z.",
"{.J.:.:.E.}.|.[.n.:.:.I.T.U.v.b & 4 1 1 1 2.7.4.9 >.>.5.r.d.d.r.3.<.1 >.7.y.y.7.<.1 1 1 1 2 : h ! ..=.!.|.|.`.n.:.n.`.|.|.E.:.:.",
"E.E.E.E.E.E.E.W.E.E.E.E.E.E.H.| p 4 2 1 >.>.4.2.9 1 r 3.q.r.r.9.1.<.3 >.2.7.7.4.>.1 1 1 2 0 h ! j.I.E.E.E.E.E.E.E.E.E.E.E.E.E.E.",
":.)..X.X!.:.:.M.[. X}.J.:.:.M.h.f $ 1 1 1 3 >.>.3 <.9.0.5.3.1.3.9.3.<.1 >.>.>.>.1 1 1 2 : f ! +.^.}.|.I.:.:.F.{..X}.D.:.:.E..X.X",
"n.`..X.X!.z.:.M.{. X XJ.:.:.D.B.( B 5 2 1 1 1 1 9 3.r.0.<.>.>.4.r.r.<.>.1 1 1 >.1 1 < < # a ' z.].|.|.E.:.:.F.}.}.}.F.:.:.E.|..X",
"J.!.).`.Q.J.F.J.).).`.E.F.F.K.T.b.) 6 : 3 1 1 9 >.4.r.0.<.<.4.7.t.y.r.9.r 1 1 1 , = = = @ j +.S.(.`.).E.F.F.K._._.).K.F.F.E.`._.",
"{.J.:.b.K.{.}.].M.n.n.(.}.}.(.n.:._ f $ 2 1 1 9 3.9.r.0.>.>.4.7.7.t.u.r.3.<.>.>.3 < - * @ z b.'.M.:.n.!.}.}.`.n.n.n.`.{.}.E.n.n.",
"{.J.:.:.T.}..X].n.:.n.).}.|.(.n.-.Q s $ 2 1 3 <.w.u.y.7.>.3 >.>.<.3.r.p.r.0.6.6.6.3.2 * @ c N.].D.:.:.Q.|.|.`.:.:.n.`.|.}.Q.:.:.",
"!.D.M.n.I.[.[.`.D.n.M.(.[.{.!.n.b.' s $ 3 9 <.5.u.u.y.4.>.1 1 1 1 r 9.r.d.r.u.t.y.6.9 * @ z x._.F.M.M.E.[.[.).M.M.M.`.[.[.E.n.M.",
"o.J.[.'.Q.M.M.F.`.[.].K.n.M.I.[._.g.f $ 2 <.0.r.u.y.y.4.>.1 1 1 1 >.<.3.r.r.5.6.8.6.9 * . d { M.).[.[.E.M.n.K.].].].F.M.M.E.[.[.",
"E Y.}..X!.:.:.M.[.|.}.G.:.:.K..X'.j.a $ 3 3.r.r.t.t.y.7.>.1 1 1 1 1 1 <.9.w.5.6.6.6.8 * @ s ' z.[.}.}.E.:.:.F.}.|.{.D.:.:.E.|.}.",
"*.!.{.}.(.:.:.M.[.}.{.K.:.n.K.}.'.h.a $ 3 3.r.r.<.4.t.4.3 1 1 1 1 1 1 >.1.4.0.0.3.9 < * @ s ' n.`.}.{.E.:.n.F.{.}.{.D.n.:.E.}.{.",
"(.E.J.J.E.)._.(.K.H.J.Q.).).E.C.z.` f q e 3.0.3.>.<.4.2.3 < 2 1 < < 3 <.2.3.0.0.3.9 < * @ s | C.F.G.J.E._.).!.G.J.J.(.)._.E.H.J.",
"}.F.:.:.K.}..X].M.:.n.).|.|.!.[ v s p M 9.5.<.>.3 3 3 2 , = * * : 0 3.5.7.6.3.<.9.3.8 * @ p m } +.:.:.E..X.X`.n.:.n.`..X.XE.n.:.",
"}.F.:.:.I.}..X].n.:.:.).|.|.W.Q p p f S i.5.9 1 3 - = * *   . . . q i 9.0.4.>.<.w.r.i 5 . o + z ] :.:.!.}.}.`.:.:.n.`..X.XE.:.:.",
"!.E.E.E.E.!.!.E.E.E.E.!.Q.!.K.| a N G i.p.9.9 < < = =   @ o o + + O & w r >.3 r 0.p.w.3.0 X o j @.K.E.E.Q.!.E.E.E.E.E.E.!.E.E.E.",
":.).}.}.(.:.:.M.{.}.{.J.:.:.m.h.k B i.p.q.3.3 , = * * $ c R T n z z b J w 2 1 9 9.r.p.r.e > @ s l.[.}.E.:.:.F.{.}.{.F.:.:.E.}.}.",
"n.`.|.|.!.:.:.M.{.|.}.K.:.:.M.h.j B i.0.1.3 , = =   @ c v.P.P.;.{ { -.c.I $ > 1 r 3.w.r.e * @ f l.[. XE.:.:.F.}.}.{.M.:.:.E..X|.",
"F.!.`.`.W.F.F.J.).`.).K.M.b.l.| V S i.5.3 < = * * $ c | T._.).E.D.D.K.G.| c w > 1 3 9.0.t 5 $ f  .P.^.E.F.C.K.`.`.`.J.F.F.E.`.`.",
"{.J.n.:.E.{.}.].M.n.n.(.'.V.` J H i.r.9.3 < = * # ~ b.R.n.b.:.(.{.}.).z.%.' K $ 2 3 r 1.3.D 5 $ h W { E.{.}._.n.n.n.`.}.}.E.n.n.",
"}.F.:.:.K.}.}.].M.:.b._._.g.k C i.p.w.3.2 - : & c l.'.'.M.:.:.(.|.|.).n.b.%.^ % $ 2 2 3 9.r.t > @ a / E..X}.`.:.z.n.`.}.}.E.:.:.",
"{.J.n.n.E.{.{.`.M.n.n.).).$.f C i.0.3.3 > ; # c g.W.`.[.D.n.n.!.{.{.).n.n.-.^ + + . > 9 9.r.3.2 $ a _ E.{.{.).M.n.M.`.{.{.E.n.m.",
"D.(.[.].Q.M.M.F.`.].].I.n._ f C r.3.3 = ; q I k.K.M.M.F._.].[.E.M.M.K.].[.E.] d p + 4 0 3.0.3.e $ k j.G.M.C.J.`.[.`.J.M.M.E.].].",
":.).}.|.!.:.:.M.].|.|.J.=.Q a C e.i < ; # ) V.^.!.z.:.n.[.}.}.K.:.:.J.}.}._.-.' z + O $ w t 9.3.M k l.G.:.:.F.{.}.{.D.:.:.E..X}.",
"n.).}.}.Q.b.:.M.].|.}.J.=.^ p N G w : & z j._. X).n.n.n.[.}.}.K.:.:.H.{.}.{.M.%./ n R P B 2 A F g z x.G.:.:.F.}.}.{.D.:.:.E.}.}.",
").E.J.K.E.(.).(.I.J.J.!.T.| a p g % 6 ) v.C.F.G.E./.).!.K.J.K.!.).).!.J.K.K.).!.H.j.%.X.P & & g % s ..I.).).!.J.K.K.!.).).E.E.J.",
"}.F.:.:.K.}..X].M.:.n.).].b.R z z z ^ v.'.J.:.:.J.}.}.{.M.:.z.(. X X).n.:.n.[.}.}.K.:.=.] R T R z v [ E..X.X_.n.:.n.`..X.XE.:.:.",
"}.J.:.:.I.}.|.[.n.:.n.).{./.m.{ { +.G._.{.K.:.:.J.{.}.{.M.:.:.(. X X).z.:.M.`. X}.E.:.:.z.L.L.A.%.O.%.W.}.}.`.n.:.n.`..X.XE.:.:.",
"(.T.J.G.E.)./.!.I.J.K.W.).).E.G.G.K.!.!./.E.K.K.E.).).!.K.J.K.W.).^.!.K.J.K.!.)./.E.J.G.T.!./.!.K.G.J.!.).).!.K.J.K.!.).).W.J.K."
};
