/* XPM */
static char *empty_resized[] = {
/* columns rows colors chars-per-pixel */
"64 64 162 2 ",
"   c #024C3A",
".  c #084838",
"X  c #0D4A3A",
"o  c #17443C",
"O  c #164B3D",
"+  c #075538",
"@  c #0B533A",
"#  c #075F3E",
"$  c #0A5A3C",
"%  c #1C5536",
"&  c #125C36",
"*  c #145E3A",
"=  c #1B583D",
"-  c #23503E",
";  c #245A3A",
":  c #0E6237",
">  c #07623F",
",  c #0C633D",
"<  c #0F6A3E",
"1  c #166335",
"2  c #1A6437",
"3  c #1C6A37",
"4  c #14653A",
"5  c #146B3B",
"6  c #1B6D3B",
"7  c #14723E",
"8  c #1E743B",
"9  c #226C35",
"0  c #22643C",
"q  c #29643A",
"w  c #216C3A",
"e  c #2B6C39",
"r  c #326837",
"t  c #257336",
"y  c #2B7434",
"u  c #2B7C36",
"i  c #227539",
"p  c #2A753C",
"a  c #247B39",
"s  c #2B7D39",
"d  c #337431",
"f  c #337C33",
"g  c #397E33",
"h  c #317C3D",
"j  c #0D5240",
"k  c #145343",
"l  c #195442",
"z  c #135D42",
"x  c #1D5B44",
"c  c #165C49",
"v  c #1C5C48",
"b  c #204E42",
"n  c #2B4E43",
"m  c #374443",
"M  c #324842",
"N  c #255244",
"B  c #295246",
"V  c #235D44",
"C  c #2D5B46",
"Z  c #33554D",
"A  c #2F5E53",
"S  c #3D5753",
"D  c #345E54",
"F  c #3C5E56",
"G  c #086541",
"H  c #0E6749",
"J  c #146543",
"K  c #1D6147",
"L  c #136C41",
"P  c #1B6048",
"I  c #196C51",
"U  c #266149",
"Y  c #29654D",
"T  c #24694E",
"R  c #2F6F4A",
"E  c #356A42",
"W  c #326048",
"Q  c #2B7845",
"!  c #2F655A",
"~  c #356155",
"^  c #316E51",
"/  c #2F7154",
"(  c #36785F",
")  c #396E63",
"_  c #445B55",
"`  c #485A57",
"'  c #4B5E5B",
"]  c #555B5B",
"[  c #4C645E",
"{  c #45695C",
"}  c #56605D",
"|  c #427A5E",
" . c #49785B",
".. c #4E6760",
"X. c #536761",
"o. c #526A65",
"O. c #5B6C66",
"+. c #427961",
"@. c #487768",
"#. c #5E756D",
"$. c #547F76",
"%. c #6B6D6E",
"&. c #62746E",
"*. c #657673",
"=. c #6D7573",
"-. c #627B74",
";. c #607E79",
":. c #6C7E79",
">. c #747574",
",. c #747B79",
"<. c #7D7D7D",
"1. c #817C7E",
"2. c #3E812F",
"3. c #2F8136",
"4. c #27813B",
"5. c #2C8239",
"6. c #338435",
"7. c #398634",
"8. c #368836",
"9. c #3C8A34",
"0. c #318438",
"q. c #4F942F",
"w. c #51972F",
"e. c #54992F",
"r. c #5A9D2E",
"t. c #418731",
"y. c #428E32",
"u. c #498E30",
"i. c #448F38",
"p. c #469032",
"a. c #4B9431",
"s. c #4E9830",
"d. c #509730",
"f. c #519830",
"g. c #5EA02D",
"h. c #428863",
"j. c #46816D",
"k. c #4E8E77",
"l. c #6A8679",
"z. c #807F80",
"x. c #7C8482",
"c. c #788D86",
"v. c #808080",
"b. c #908F90",
"n. c #929494",
"m. c #919D9B",
"M. c #999999",
"N. c #A09F9F",
"B. c #8CA09C",
"V. c #90A39F",
"C. c #94A7A3",
"Z. c #9FA5A3",
"A. c #94AFA6",
"S. c #9EB4AD",
"D. c #A4A2A2",
"F. c #A5AEAB",
"G. c #B0B0B0",
"H. c #B2BAB9",
"J. c #B8BABA",
"K. c #C5C7C7",
"L. c #C6C9C9",
"P. c #CBCACA",
/* pixels */
"v.v.<.M.F.O.= 5 < 2 d.9.a 5.p.3.3.9.q.p.3.3.9.a.9.6.3.3.p.s.p.6.9.q.9.6.6.3.6.q.a.6.3.6.3.3.9.w.6.3.p.9.7 3.p.y : 7 w - ' =.M.P.",
"v.v.1.:.j.T * y 6.u y.a.8.0.8.3.3.9.9.7.3.6.7.9.9.3.3.9.q.q.6.3.6.9.9.6.3.6.9.p.9.3.3.6.9.9.3.9.6.3.6.6.4.9.a.3.3.9.9 $ P { b.P.",
"<.,.&.~ $ i 1 y u.p.5.f.s.7.8.7.6.3.3.3.7.9.9.p.9.3.3.6.9.9.6.9.9.9.6.6.6.p.s.p.7.3.3.7.p.p.6.3.3.6.8.6.9.e.a.9.s.p.7 5 1 V -.S.",
"M.c.+.z * y.f e 9.y.5.y.a.9.y.d.9.3.3.7.a.w.a.a.a.6.6.9.7.6.6.9.e.e.9.6.6.s.e.9.3.3.9.p.a.e.p.3.6.p.p.9.8.s.9.9.p.8.8 6.t * / k.",
"L.A.h.5 i f.w.7.7.9.8.6.6.6.y.r.w.7.3.y.g.e.9.9.9.6.a.s.9.6.3.9.g.g.q.6.6.9.9.7.3.9.e.q.a.g.w.6.9.e.q.6.6.9.9.9.7.3.7.e.7.a i I ",
"P.C.| u p.p.e.y.9.e.e.7.u 3.7.s.e.9.9.e.e.9.3.6.6.9.e.g.p.6.3.6.9.w.a.6.6.6.7.7.p.g.e.9.9.e.w.6.9.w.p.3.3.3.9.w.p.7.p.s.s.9.w k ",
"G.x.~ 0 7.a.e.a.y.q.r.q.7.3.6.7.y.7.9.p.9.3.5.u 9.s.g.a.7.3.3.3.3.7.6.6.3.3.9.9.p.9.9.9.6.9.9.6.9.9.9.3.3.9.q.g.p.7.s.e.p.y = n ",
"l. .R 6 y y.p.9.7.7.y.y.8.3.3.u 6.3.6.6.3.3.3.3.9.q.p.7.3.3.3.3.3.3.3.3.3.6.9.9.9.6.9.9.6.6.6.3.3.6.3.3.3.9.9.p.6.6.p.p.2.8 U E ",
"K i 0.y.t.y.7.9.7.6.3.6.6.3.3.3.3.3.3.3.3.3.3.3.6.6.7.6.3.3.3.3.3.3.3.3.3.6.6.6.6.6.9.9.6.3.3.3.3.3.3.3.3.6.6.6.6.9.9.7.9.y.y.8.",
"k = 7.f.g.w.9.p.q.y.3.3.3.3.3.3.3.3.3.3.3.3.3.3.3.3.3.3.3.3.3.3.3.3.3.3.3.3.3.3.6.3.6.6.3.3.3.3.3.3.3.3.3.3.3.7.q.s.p.9.e.g.q.u ",
"} _ q f 9.q.9.p.r.w.6.5.3.3.3.3.3.3.3.3.3.3.3.6.3.3.3.3.3.3.3.3.3.3.3.3.3.3.3.3.3.3.3.3.3.3.3.3.3.3.3.3.3.3.3.y.g.r.9.p.p.9.3.L ",
"^ R p u 3.9.9.9.p.a.9.6.3.3.3.3.3.3.3.3.3.3.3.3.3.3.3.3.3.3.3.3.3.3.3.3.3.3.3.3.3.3.3.3.3.3.3.3.3.3.3.3.3.3.6.y.p.9.7.9.8.3.s a ",
"7 3.p.9.9.y.q.p.9.7.7.6.3.3.3.3.3.3.3.3.3.3.3.3.3.3.3.3.3.3.3.3.3.3.3.3.3.3.3.3.3.3.3.3.3.3.3.3.3.3.3.3.6.7.9.9.9.9.p.a.9.7.y.a.",
"q 2.s.p.9.p.w.q.9.3.3.3.3.3.3.3.3.3.3.3.3.3.3.3.3.3.3.3.3.3.3.3.3.3.3.3.3.3.3.3.3.3.3.3.3.3.3.3.3.3.3.5.8.y.y.7.6.9.w.w.y.y.a.f.",
"- q 7.y.7.6.9.9.3.3.3.3.3.3.3.3.3.3.3.3.3.3.3.3.3.3.3.3.3.3.3.3.3.3.3.3.3.3.3.3.3.3.3.3.3.3.3.3.3.3.3.3.6.9.9.8.u 6.9.9.7.9.y.9.",
"J u q.w.y.6.3.3.3.3.3.3.3.3.3.3.3.3.3.3.3.3.3.3.3.3.3.3.3.3.3.3.3.3.3.3.3.3.3.3.3.3.3.3.3.3.3.3.3.3.3.3.3.3.6.3.3.6.6.6.8.s.f.f.",
"8.s.r.q.9.3.3.9.p.9.3.3.3.3.3.3.3.3.3.3.3.3.3.3.3.3.3.3.3.3.3.3.3.3.3.6.3.3.3.3.6.3.3.3.3.3.3.3.3.3.3.3.3.3.5.6.p.q.6.3.6.9.r.g.",
"s 7.9.7.3.7.p.w.w.9.3.3.3.3.3.3.3.3.3.3.3.3.3.3.3.3.3.3.6.3.3.3.3.3.3.3.3.3.3.3.3.3.3.3.3.3.3.3.3.3.3.3.3.3.3.6.q.r.q.9.6.6.9.9.",
"$ 4 i u 3.9.s.w.p.6.3.3.3.3.3.3.3.3.3.3.3.3.3.3.3.3.3.3.3.3.3.3.3.3.3.3.3.3.3.3.3.3.3.3.3.3.3.3.3.3.3.3.3.3.3.3.6.q.w.p.7.3.a 8 ",
"3 8 a 3.6.9.p.9.6.3.3.3.3.3.3.3.3.3.3.3.3.3.3.3.3.3.3.3.3.3.3.3.3.3.3.3.3.3.3.3.3.3.3.3.3.3.3.3.3.3.3.3.3.3.3.3.3.7.y.p.7.6.3.a ",
"7 5.q.p.9.s.w.9.3.3.3.3.3.3.3.6.3.3.3.3.3.3.3.3.3.3.3.3.3.3.3.3.3.3.3.3.3.3.3.3.3.3.3.3.3.3.3.3.3.3.3.3.3.3.3.3.u 3.9.w.p.p.w.q.",
"6.q.r.q.7.p.e.9.3.3.3.3.3.3.3.3.3.3.3.3.3.3.3.3.3.3.3.3.3.3.3.3.3.3.3.3.3.3.3.3.3.3.3.3.3.3.3.3.3.3.3.3.3.3.3.6.3.7.p.w.9.9.w.g.",
"p.q.p.9.3.6.p.9.9.p.9.3.3.3.3.3.3.3.3.3.3.3.3.3.3.3.3.3.3.3.3.3.3.3.3.3.3.3.3.3.3.3.3.3.3.3.3.3.3.3.3.3.3.3.7.9.9.9.y.9.6.6.y.q.",
"q.9.6.3.3.3.6.9.w.g.p.6.3.3.3.3.3.3.3.3.3.3.3.3.3.3.3.3.3.3.3.3.3.3.3.3.3.3.3.3.3.3.3.3.3.3.3.3.3.3.3.3.3.3.7.q.r.p.9.3.5.3.3.6.",
"e.s.9.3.3.6.7.q.g.q.7.3.3.3.3.3.3.3.3.3.3.3.6.3.3.3.3.3.3.3.3.3.3.3.3.3.3.3.3.3.3.3.3.3.3.3.3.3.3.3.3.3.3.3.6.p.e.r.q.6.3.3.6.9.",
"5.8.7.9.q.9.9.p.q.9.6.3.3.3.3.3.6.3.3.3.3.3.3.3.3.3.3.3.3.3.3.3.3.3.3.3.3.3.3.3.3.3.3.6.3.3.3.3.3.3.3.3.3.3.3.6.y.e.p.9.p.y.6.7.",
"a 3.9.s.r.9.6.7.7.3.3.3.3.3.3.3.3.3.3.3.3.3.3.3.3.3.3.3.3.6.3.3.3.3.3.3.3.3.3.3.3.3.3.3.3.3.3.3.3.3.3.3.3.3.3.3.6.9.7.6.p.r.p.6.",
"8 u 9.s.p.6.5.5.3.3.3.3.3.3.3.3.3.3.3.3.3.3.3.3.3.3.3.3.3.3.3.3.3.3.3.3.3.3.3.3.3.3.3.3.3.3.3.3.3.3.3.3.3.3.3.3.3.3.u 3.9.q.q.9.",
"> 8 8.9.3.3.7.6.3.3.3.3.3.3.3.3.3.3.3.3.3.3.3.3.3.3.3.3.3.3.3.3.3.3.3.3.6.3.3.3.3.3.3.3.3.3.3.3.3.6.3.3.3.3.3.3.3.3.7.7.6.6.9.7.",
"> 8 3.6.3.7.q.p.8.3.3.3.3.3.3.3.3.3.3.3.3.3.3.3.3.3.3.3.3.3.3.3.3.3.3.3.3.3.3.3.3.3.3.3.3.3.3.3.3.3.3.3.3.3.3.3.3.7.p.p.7.3.6.3.",
"8 3.p.p.9.7.r.r.9.3.3.3.3.3.3.3.3.3.3.3.3.3.3.3.3.3.3.3.3.3.3.3.3.3.3.3.3.3.3.3.3.3.3.3.3.3.3.3.3.3.3.3.3.3.3.3.6.p.g.q.9.y.q.p.",
"s.e.g.s.7.7.s.g.w.6.3.3.3.3.3.3.3.3.3.3.3.3.3.3.3.3.3.3.3.3.3.3.3.3.3.3.3.3.3.3.3.3.3.3.3.3.3.3.3.3.3.3.3.3.3.3.9.g.g.p.9.y.w.g.",
"q.e.e.9.3.3.9.q.p.6.3.3.3.3.3.3.3.3.3.3.3.3.3.3.3.3.3.3.3.3.6.3.3.3.3.3.3.3.3.3.3.3.3.3.3.3.3.3.3.3.3.3.3.3.3.3.9.q.p.9.3.6.p.r.",
"t 3.7.3.3.3.6.6.3.3.3.3.3.3.3.3.3.3.3.3.3.3.3.3.3.3.3.3.3.3.3.3.3.3.3.3.3.3.3.3.3.3.3.3.3.3.3.3.3.3.6.3.3.3.3.3.3.6.6.6.3.3.6.9.",
"1 8 4.3.3.7.9.9.3.3.3.3.3.3.3.6.3.3.3.3.3.3.3.3.3.3.3.3.3.3.3.3.3.3.3.3.3.3.3.3.3.3.3.3.3.3.3.3.3.3.3.3.3.3.3.3.u 6.9.9.6.3.3.5.",
"u 5.3.5.6.q.e.9.3.3.3.3.3.3.3.3.3.3.3.3.3.3.6.3.3.3.3.3.3.3.3.3.3.3.3.3.3.3.6.3.3.3.3.3.3.3.3.3.3.3.3.3.3.3.3.3.3.6.y.q.p.6.3.u ",
"q.s.p.9.9.r.w.7.3.3.3.3.3.3.3.3.3.3.3.3.3.3.3.3.3.3.3.3.3.3.3.3.3.3.3.3.3.3.3.3.3.3.3.3.3.3.3.3.3.3.3.3.3.3.3.3.3.3.9.r.q.9.9.q.",
"9.e.g.q.9.q.9.7.7.7.3.3.3.3.3.3.3.3.3.3.3.3.3.3.3.3.3.3.3.3.3.3.3.3.3.3.3.3.3.3.3.3.3.3.3.3.3.3.3.3.3.3.3.3.3.3.3.3.6.p.9.p.e.g.",
"7 u p.q.9.6.6.p.q.9.3.3.3.3.3.3.3.3.3.3.3.3.3.3.3.3.3.3.3.3.3.3.3.3.3.3.3.3.3.3.3.3.3.3.6.3.3.3.3.3.3.3.3.3.3.6.9.9.6.3.8.p.s.a.",
"3 8 a 3.6.9.p.e.p.6.3.3.3.3.3.3.3.3.3.3.3.3.3.3.3.3.3.3.3.3.3.3.3.3.3.3.3.3.3.3.3.3.3.3.3.3.3.3.3.3.3.3.3.3.3.6.q.r.9.3.3.8.3.8 ",
"f f 5.5.5.2.p.p.7.3.3.3.3.3.3.3.3.3.3.3.3.3.3.3.3.3.3.3.3.3.3.3.3.3.3.3.3.3.3.3.3.3.3.3.3.3.3.3.3.3.3.3.3.3.3.3.9.q.e.9.3.3.u 8 ",
"t.q.q.7.3.3.6.3.6.7.3.3.3.3.3.3.3.3.3.6.3.3.3.3.3.3.3.3.3.3.3.3.3.3.3.3.3.3.3.3.3.3.3.3.3.3.3.3.3.3.3.3.3.3.3.3.3.7.9.9.9.6.8.p.",
"3.p.q.p.p.9.7.7.p.p.6.u 3.3.3.3.3.3.3.3.3.3.3.3.3.3.3.3.3.3.3.3.3.3.3.3.3.3.3.3.3.3.3.3.3.3.3.3.3.3.3.3.3.3.3.3.6.9.p.p.p.9.7.a.",
"7 a 7.p.g.r.p.p.r.w.6.3.3.3.3.3.3.3.3.3.3.3.3.3.3.3.3.3.3.3.3.3.3.3.3.3.3.3.3.3.3.3.3.3.3.3.3.3.3.3.3.3.3.3.3.6.9.w.g.g.p.6.7.9.",
"3 u 9.a.w.p.9.a.s.y.3.3.3.3.3.3.3.3.3.3.3.3.3.3.6.3.3.3.3.3.3.3.3.3.3.3.3.3.3.3.3.6.3.3.3.3.3.3.3.3.3.3.3.3.3.6.p.e.e.9.7.9.a.e.",
"W a 6.p.a.7.6.7.7.6.3.3.3.3.6.3.3.3.3.3.3.3.3.3.3.3.3.3.3.3.3.3.3.3.3.3.3.3.3.3.3.3.3.3.3.3.3.3.3.3.3.3.3.3.3.3.6.9.9.p.9.9.p.a.",
"Y h 9.e.a.7.3.3.3.3.3.3.3.3.3.3.3.3.3.3.3.3.3.3.3.3.3.3.3.3.3.3.3.3.3.3.3.3.3.3.3.3.3.3.3.3.3.3.3.3.3.3.3.3.3.3.3.3.9.e.g.a.9.3.",
"a 8.a.a.p.a.9.7.3.3.3.3.3.3.3.3.3.3.3.3.3.3.3.3.3.3.3.3.3.3.3.3.3.6.3.3.3.3.3.3.3.3.3.3.3.3.3.3.3.3.3.3.3.3.3.3.3.3.9.9.a.a.a.9.",
"p u u 6.y.r.e.y.8.6.8.3.3.3.3.3.3.3.3.3.3.3.3.3.3.3.3.3.3.3.3.3.3.3.3.3.3.3.3.3.3.3.3.3.3.3.3.3.3.3.3.3.3.3.6.6.6.6.6.3.6.9.s.g.",
"N U y 9.d.r.y.7.y.u.9.6.3.3.3.3.3.3.3.3.3.3.3.3.3.3.3.3.3.3.3.3.3.3.3.3.3.3.3.3.3.3.3.3.3.3.3.3.3.3.3.3.3.3.6.p.p.9.6.7.9.p.a.3.",
"D Y s y.q.w.y.y.w.q.8.3.3.3.3.3.3.3.3.3.3.3.3.3.3.3.3.3.3.3.3.3.3.3.3.3.3.3.3.3.3.3.3.3.3.3.3.3.3.3.3.3.3.3.6.9.g.w.9.9.p.w.9.8 ",
"P Q i.f.r.w.y.y.q.y.6.u 3.3.3.3.3.3.3.3.3.3.3.3.3.3.3.3.3.3.3.3.3.3.3.3.3.6.3.3.3.3.3.3.3.3.3.3.3.3.3.3.3.3.3.8.p.a.9.p.e.g.s.7.",
"x w f t.y.y.7.6.7.3.3.6.6.3.3.3.3.3.3.3.3.3.3.3.6.7.7.3.3.3.3.3.3.3.3.3.3.3.3.3.3.3.3.3.3.3.3.3.3.3.3.3.3.6.6.3.6.7.7.7.9.y.2.f ",
"X.n X $ 7 6.9.6.6.6.9.y.7.u 3.3.3.3.3.6.3.3.3.u 7.p.p.7.3.3.3.3.3.3.3.3.3.3.3.3.6.6.3.3.3.6.6.3.3.6.3.3.6.6.9.9.3.3.7.7.4.< @ O ",
">.] B J 6.w.r.a.9.q.r.s.7.u 3.7.y.7.9.y.9.3.3.5.9.e.r.p.7.3.3.3.3.7.7.3.3.3.3.u 9.p.9.3.3.9.p.6.3.9.9.6.3.9.e.g.9.9.e.r.p.8 K [ ",
"1.&.Y i 7.w.r.u.9.q.w.9.6.5.8.q.s.9.7.q.e.9.6.6.7.p.r.r.9.6.3.6.9.e.p.6.3.6.3.5.9.q.e.9.9.s.q.6.9.q.a.6.3.6.9.w.9.7.q.g.q.6.Q ( ",
"x.#.T > t d.a.6.8.p.9.9.7.6.y.g.q.8.6.p.r.q.9.y.9.8.p.q.9.3.6.y.r.g.q.6.6.p.9.7.6.y.w.p.p.r.w.6.9.e.a.6.6.9.9.p.9.3.3.q.9.t 6 I ",
"z.*.F k L 9.u a p.p.5.p.q.9.9.q.9.3.5.7.p.w.p.s.p.6.6.7.7.3.6.9.e.e.9.3.7.w.r.p.6.3.9.9.q.q.9.6.9.a.9.3.9.s.9.p.s.8.a 7.a 1 A $.",
"v.z.%._ H G , f w.y.4.s.s.7.7.9.3.3.3.3.7.y.p.9.9.3.3.7.9.9.3.6.6.6.6.3.8.9.w.q.7.3.u 6.y.p.6.3.6.6.6.5.8.w.9.9.w.e.t 2 4 V =.J.",
"1.x.z.-.! k , 3.f 9 9.s.9.3.y.s.7.7.9.7.3.3.6.7.6.3.3.9.q.q.7.3.7.9.7.3.3.3.7.9.9.6.3.6.6.3.6.6.5.5.9.3.7 9.q.d d p.a # j F b.P.",
"z.v.<.n.m.[ J J J 6 p.9.8 5.q.q.f 9.q.p.3.a 8.q.p.3.3.7.p.q.9.5.9.q.q.3.a 5.7.q.q.5.4.9.7.8.y.a.a a a.g $ i 8.9 % q 6 c F %.M.P.",
"v.z.<.D.J...c ) ) J t 7 < t 2.y & y q.s.3.6 u s.q.6.7.9.9.9.6.5 6.w.w.7.< a 9.e.q.u 8 9.y.p.f.y.1 t q.g   4 4 + b S U l [ >.M.P.",
"v.v.<.N.H.;.$.V.B.@.U G $ ; 3 @ o ; 7.y.8 # 8 8.9.9.q.p.8.4.6 $ a p.w.u + 7 9.p.8.i & 7.9.p.a.e = q f e l @ @ O ' =.o.D o.>.M.P.",
"v.v.<.M.K.H.H.K.L.Z.X.z v n X . m M r u < @ 1 y 3.9.g.a.5.7 >   5 9.q.9   7 8.8.4.t @ a 4.0.f l Z q 1 C ` X o ` >.<.<.>.,.,.M.P."
};
