/* XPM */
static char *exit_resized[] = {
/* columns rows colors chars-per-pixel */
"64 64 137 2 ",
"   c #2A1D20",
".  c #322125",
"X  c #3C2523",
"o  c #352428",
"O  c #4F2D1F",
"+  c #522E1F",
"@  c #56301E",
"#  c #5C321D",
"$  c #62351D",
"%  c #65381F",
"&  c #412722",
"*  c #442922",
"=  c #4C2C21",
"-  c #492F28",
";  c #502E20",
":  c #4F3125",
">  c #4D3229",
",  c #533325",
"<  c #5C3622",
"1  c #54362A",
"2  c #56382C",
"3  c #5D3C2D",
"4  c #623720",
"5  c #663A21",
"6  c #693D24",
"7  c #623E2B",
"8  c #6B4127",
"9  c #64402D",
"0  c #6D4329",
"q  c #6F482F",
"w  c #70462C",
"e  c #73492E",
"r  c #754C31",
"t  c #784E32",
"y  c #7C5235",
"u  c #7F5438",
"i  c #805635",
"p  c #815639",
"a  c #85593C",
"s  c #895D3D",
"d  c #8C603D",
"f  c #93633F",
"g  c #8B5F40",
"h  c #8E6142",
"j  c #936544",
"k  c #996743",
"l  c #966846",
"z  c #9B6B44",
"x  c #976948",
"c  c #9B6C49",
"v  c #9D7144",
"b  c #9F714A",
"n  c #A06E47",
"m  c #A16F4A",
"M  c #A27544",
"N  c #A87C47",
"B  c #A5734A",
"V  c #AA754B",
"C  c #A0794E",
"Z  c #AB7A4D",
"A  c #B17C4C",
"S  c #A37B52",
"D  c #A87D52",
"F  c #B07D50",
"G  c #B4834E",
"H  c #B4884C",
"J  c #BA894F",
"K  c #AE8353",
"L  c #AB835D",
"P  c #AC885C",
"I  c #B48552",
"U  c #B88750",
"Y  c #B68A54",
"T  c #BC8D52",
"R  c #B28759",
"E  c #B48B5C",
"W  c #BB8E58",
"Q  c #BE9153",
"!  c #BA935C",
"~  c #9A8773",
"^  c #9E8A74",
"/  c #968A7C",
"(  c #AC8661",
")  c #AB8965",
"_  c #AB8C6A",
"`  c #B18960",
"'  c #AD906A",
"]  c #B69164",
"[  c #BB9461",
"{  c #BD9963",
"}  c #B5946D",
"|  c #B4986C",
" . c #A28C75",
".. c #AA8E71",
"X. c #A79076",
"o. c #A7957B",
"O. c #AC947B",
"+. c #AE997F",
"@. c #B49574",
"#. c #BB9E75",
"$. c #B59C7E",
"%. c #C19453",
"&. c #C0955A",
"*. c #C09862",
"=. c #8E8E8E",
"-. c #958B81",
";. c #93918F",
":. c #959594",
">. c #9C9C9C",
",. c #AA9A83",
"<. c #AC9E8D",
"1. c #B59E83",
"2. c #A49D94",
"3. c #A09E9B",
"4. c #AFA091",
"5. c #A5A29E",
"6. c #B5A594",
"7. c #BDA790",
"8. c #BFAB93",
"9. c #B1A79B",
"0. c #BAAC9C",
"q. c #A3A3A3",
"w. c #AAA6A2",
"e. c #ADAAA6",
"r. c #A7A7A8",
"t. c #ABABAB",
"y. c #B4ADA6",
"u. c #B2AFAB",
"i. c #BCB1A4",
"p. c #B4B0AC",
"a. c #BEB5AA",
"s. c #B4B4B4",
"d. c #B9B7B2",
"f. c #BCB9B4",
"g. c #BCBCBC",
"h. c #C0BCB7",
"j. c #C0C0C0",
/* pixels */
"                                                                                                                                ",
"o . . . . . . . . . . . . . . . . . . . . . . . . . . . . . . . . . . . . . . . . . . . . . . . . . . . . . . . . . . . . . . . ",
"o . . . . . . o . . . . . . . . . . . . . . . . . . . . . . .   . . . . . . . . . . . . . . . . . . . . . . . . . . . . . . . . ",
"o . . . . . .   . . . . . . . . . . . . . . . . . . . . . . . . . . . . . . . . . . . . . . . . . . .   . . . . . . . . . . . . ",
"o . . . . . . . . . . . . . . . . . . . . .   . . . . . . . . . . . . . . . . . . . . . . . . . . . . . . . . . . . . . . . . . ",
"o . . . . . . . . . . . . . . . . . . . . . . . . . . . . . . . . . . . . . . . . . . . . . . . . . . . . . . . . . . . . . . . ",
"o . . . . . . . . . . . . . . . . . . . . . . . . . . . . . . . . . . . . . . . . . . . . . . . . . . . . . . . . . . . . . . . ",
"o . . . . . . . . . . . . . . . . . . . . . . . . . . . . . . . . . . . . . . . . . . . . . . . . . . . . . . . . . .   . . . . ",
". . . . . . . . . . . . . . . . . . . . . . . . . . . . . . . . . . . . . . . . . . . .   . . . . . . . . .   . . . . . . . . . ",
". . . . . . . . . . . . . . . . . . . . . . . . . . . .   . . . . . . . . . . . . . . . . . . . . . . . . . . . . . . . . . . . ",
". . . . . . . . . .   . . . . . . . . . . . . . . . . . o . . . . . . . . . . . . . . . . . . . . . . . . . . . . . . . . . . . ",
". . . . . . . . . . . . . . . . . . . . . . . . . . . . . . . . . . . . . . . . . . . . . . . . . . . . . . . . . . . . . . . . ",
"o . . . . . . . . . . . . . . . . . . . . . . . . . . . . . . . . . . . . . . . . . . . . . . . . . . . . . . . . . . . . . . . ",
"o . . . . . . . . . . . . . . . . . . . . .   . . . . . . . . . . . . . . . . . . . . . . . . . . . . . . . . . . . . . . . . . ",
". . . . .   . . . . . . . . . . . . . . . . . . . . . . . . . . . . . . . . . . . . . . . . . . . . . . . . . . . . . . . . . . ",
"o . . . . . . . . . . . . . . . . . . . . . . . . . . . . . . o . . . . . . . . . . . . . . . . . . . . . . . . . . . .   . . . ",
"o . . . . . . . . . . . . . . . . . . . . . . . . . . . . . o 2 3 3 3 3 3 X . o . . . . . . . . . . . . . . . . . . . . . . . . ",
". . . . . . . . . . . . . . . . . . . . . . . . . . . . X 1 9 a h f j j y 9 X o . . . . . . . . . . . . . . . . . . . . . . . . ",
"o . . . . . . . . . . . . . . . . . . . . . . . . . . o 1 q g B G G H N u r 9 X . . . . . . . . . . . . . . . . . . . . . . . . ",
"o . . . . . . . . . . . . . . . . . . . . . . . . o X 2 q y l I W Q Q K d a y < X . . . . . . . . . . . . . . . . . . . . . . . ",
". . . . . . . . . . . . . . . . . . . . . . . X X 1 3 p j h c K $.8.] Q b x h e < X . . . . . . . . . . . . . . . . . .   . . . ",
". . . . . . . . . . . . . . . . . . . . X > 7 2 3 q u l V V D 1.w.3.9.+.P K b u 5 ; & . . . . . . . . . . . . . . . . . . . . . ",
". . . . . . . . . . . . . . . . . . . X 7 a h t r u z A A I O.u.r.>.s.q.,.{ G s w 6 < X . . . . . . . . . . . . . . . . . . . . ",
"o . . . . . . . . . . . . . . . . X = 3 g c B n M N T %.Y ,.d.:.q.g.=.u.f.` %.z p 6 5 ; & . . .   . . . . . . . . . . . . . . . ",
"o . . . . . . . . . . . . . . X = ; 5 e p x m U T [ 1.~ 6.t.>.s.r.>.s.q.>.0.] B g t w 6 7 1 = & . . . . . . . . . . . . . . . . ",
"o . . . . . . . . . . . . X = ; 4 6 6 e t a c Y 1.<.5.q.r.r.q.r.r.>.t.r.q.t.4.) m h u q r e 5 < = & . . . . . . . . . . . . . . ",
". . . . . . . . . . . . X = $ 5 6 r t y g j B E a.q.:.h.:.>.j.:.q.g.=.t.s.=.p.6.D D s t p g r 5 $ @ & . . . . . . . . . . . . . ",
"o . . . . . . . . . . X ; $ 4 6 e 6 r g x m B ` -.r.g.=.s.s.=.s.r.:.g.>.>.g.>.3.i. .C n m V j t $ $ @ = & . . . . . . . . . . . ",
". . . . . . . . . . X = @ O $ 6 6 w r p p g D X.r.r.q.r.q.q.r.q.r.t.q.r.r.>.t.r.5.w.@.A m m j g 6 6 @ = X . . . . . . . . . . . ",
"o . . . . . . . . . X & * + 5 6 6 r r r t k T _ y.r.>.s.>.q.s.>.q.s.:.t.s.:.s.t.:.1.*.A c g p p t 6 < ; & . . . . . . . . . . . ",
"o . . . . . . . . . . X + 5 6 r t r t g k V %.! / r.g.=.s.t.=.g.r.=.j.>.:.j.:.>.7.` &.V x j g 7 6 6 6 6 @ & . .   . . . . . . . ",
"o . . . . . . . . . . = $ 6 r r y g l m V V Z ! i.q.>.s.>.q.s.>.r.s.:.t.s.:.u.e._ U %.V c x x g 6 6 6 6 $ & . . . . . . . . . . ",
". . . . . . . . . . . O $ 6 6 6 t x m m c c m R 9.r.q.t.q.q.t.q.q.t.>.r.t.>.t.r.<.[ U Z V c c p 6 $ % % $ @ O   . . . . . . . . ",
"o . . . . . . . . . X + $ $ $ 5 t j c j g x c ( -.t.s.=.s.s.=.s.r.:.j.q.>.g.>.>.h.} A V V j h p 6 $ + + $ $ O   . . . . . . . . ",
". . . . . . . . .   X $ $ $ 4 0 y g a p y x D ^ s.r.:.j.>.>.g.:.q.j.=.t.s.=.s.u. .R V V V s i t w 4 = X + $ @ & . . . . . . . . ",
"o . . . . . . . . . & # $ @ , w t y r r p S ,.e.q.r.r.q.r.r.q.r.r.>.t.q.q.t.q.q.@.F b b B s w e e 5 = . O $ $ & . . . . . . . . ",
"o . . . . . . . . X ; $ @ O X 9 0 q r u C o.r.s.:.r.s.:.u.t.:.s.r.:.s.q.>.s.>.5.@.V c c m s 0 w e 6 * . X < $ = . . . . . . . . ",
"o . . . . . . . . & # @ & . & 9 5 6 y M E p.r.;.g.q.:.g.>.>.j.:.r.j.=.t.s.=.s.u.~ ( m c z a 6 5 w w - . . = # = . . . . . . . . ",
". . . . . . . . . X + * o X ; 4 $ % y H [ ,.r.s.>.r.s.:.t.t.:.s.r.>.s.q.>.s.>.q.s.' l j x j r 5 4 6 1 . . X + = . . . . . . . . ",
"o . . . . . . . . X ; X . & # $ $ % y H E _ 2.u.>.r.t.>.t.r.q.t.r.>.t.r.q.t.q.q.y.' s g x x u 6 $ 5 < & . . = * . . . . . . . . ",
". . . . . . . . . o X . . X + + $ % u B T &.} ) 1.2.:.h.>.>.g.:.q.g.=.e.s.=.s.u. .R s u h g t 6 $ $ $ * . . X X . . . . . .   . ",
"o . . . . . . . . . . . . X X X # 8 t M G Q Q J Y } @...y.u.;.u.1.@.#.| @.a.>. .W v y e y t r 6 + @ $ * . . . . . . . . . . . . ",
"o . . . . . . . . . . . . . . X 4 r g c V N z M V V F F } @.) @.L A H Q %.*.| W Q v u e 0 0 r 6 * O $ * . . .   . . . . . . . . ",
"o . . . . . . . . . . . . . . X 8 y j c c j y a m m m V A A V m c m B N A G %.%.J V i 8 4 8 r 6 * & ; * . . . . . . . . . . . . ",
". . . . . . . . . . . . . . X , e r p j x a r y j c x m V V c g l c x s l V F U V B p 6 $ 5 0 1 X . * * . . . . . . . . . . . . ",
"o .   . . . . . . .   o . . X < e e 0 u u r r t g g a l V m a t j x a u h m V V m x p 6 + @ 8 > . . & & . . . . . . . . . . . . ",
"o . . . . . . . . . . . . . X 4 w w 5 6 e e 8 e y t t j m j p e p h u r h c V m x s t 5 * + 4 = . . . . . . . . . . . . . . . . ",
"o . . . . . . . . . . . . . X < w 6 $ 4 0 6 $ 6 e r t h l a t t t g u r g c c c s t r 5 * + # * . . . . . . . . . . . . . . . . ",
". . . . . . . . . . . . . . & 4 6 5 $ $ 5 $ O # 6 r t p p r w 6 6 p t r p h c h t r 6 6 * & + * . . . . . . . . . . . . . . . . ",
"o . . . . . . . . . . . . . = $ 5 $ $ = # # X < e e 6 6 r r w 6 e r 6 r r t g 6 6 r p 6 * . O * . . . . . . . . . . . . . . . . ",
"o . . . . . . . . . . . . X # $ # $ # & + * X # 6 6 6 6 w r 6 5 6 6 5 6 e 6 6 6 6 6 6 6 & . = * . . . . . . . . . . . . . . . . ",
". . . . . . . . . . . . . X # # ; # # & ; X X # 4 , $ 5 w w 6 $ 6 6 5 6 6 1 $ % 6 6 6 $ * . X X . . . . . . . . . . . . . . . . ",
"o . . . . . . . . . . . . X # @ * # # X X . X # < & + % 6 6 $ $ 4 ; < $ 7 - ; $ 6 6 6 4 & . . . . . . . . . . . . . . . . . . . ",
"o . . . . . . . . . . . . X # @ X * + X . . X ; * X # $ 5 ; * $ # & ; $ : & ; $ ; < < ; X . . . .   . . . . . . . . . . . . . . ",
". . . . . . . . . . . . . X @ = . . & . . . X = X X ; # * . o ; # & & ; & . ; = & ; $ & . . . . . . . . . . . . . . . . . .   . ",
"o . . . . . . . . . . . . X = X . . . . . . . X o X < # & . X ; * . X ; X X ; & o ; $ & . . . . . . . . . . . . . . . . . . . . ",
". . . . . . . . . . . . . . X . . . . . . . . . . . * ; X . X ; & . . X . X ; & o ; $ * . . . . . . . . . . . . . . .   . . . . ",
". . . . . . . . . . . . . . . . . . . . . . . . . . X ; & . . = & . . . . . X . . & ; * . . . . . . . . . . . . . . . . . . . . ",
"o . . . . . . . . . . . . . . . . . . . . . . . . . X ; X . X ; & . . . . . . . . o = & . . . . . . . . . . . . . . . . . . . . ",
"o . . . . . . . . . . . . . . . . . . . . . . . . . . & . . X ; & . . . . . . . . . X o . . . . . . . . . . . . . . . . . . . . ",
"o . . . . . . . . . . . . . . . . . . . . . . . . . . . . . . X . . . . . . . . . . . . . . . . . . . . . . . . . . . . . . . . ",
"o . . . . . . . . . . . . . . . . . . . . . . . . . . . . . . . . . . . . . . . . . . . . . . . . . . . . . . . . . . . . . . . ",
"o . . . . . . . . . . . . . . . . . . . . . . . . . . . . . . . . . . . . . . . . . . . . . . . . . . . . . . . . . . . . . . . ",
"o . o . . o o . . . . X . . . . . o . o o . . X . . . . . o . o o . o . X . . . o . o o . . o . o . . . o . o o . . . . . . . . "
};
