/* XPM */
static char *player_resized[] = {
/* columns rows colors chars-per-pixel */
"64 64 170 2 ",
"   c #030404",
".  c #050A0A",
"X  c #0B0D0C",
"o  c #0D100F",
"O  c #0F1211",
"+  c #111515",
"@  c #121817",
"#  c #141B1B",
"$  c #1A1D1D",
"%  c #171F20",
"&  c #172021",
"*  c #1A2324",
"=  c #1C2728",
"-  c #1E2A2C",
";  c #232C2E",
":  c #212E31",
">  c #233134",
",  c #2D3131",
"<  c #26363A",
"1  c #27383D",
"2  c #283B3F",
"3  c #343A3A",
"4  c #2A3D42",
"5  c #2D4146",
"6  c #2E444A",
"7  c #3C4242",
"8  c #30474D",
"9  c #31484F",
"0  c #344C53",
"q  c #365057",
"w  c #375158",
"e  c #39555D",
"r  c #3B5760",
"t  c #3D5B63",
"y  c #4E5252",
"u  c #525454",
"i  c #555959",
"p  c #595D5D",
"a  c #405F69",
"s  c #42636D",
"d  c #5C6262",
"f  c #446671",
"g  c #476A75",
"h  c #496C77",
"j  c #496E79",
"k  c #4C717D",
"l  c #666A6A",
"z  c #737777",
"x  c #7A7E7E",
"c  c #4E7582",
"v  c #507986",
"b  c #537D8B",
"n  c #55808E",
"m  c #568291",
"M  c #598696",
"N  c #5A8897",
"B  c #5C8C9B",
"V  c #7E8282",
"C  c #5F90A1",
"Z  c #6193A4",
"A  c #6497A8",
"S  c #669AAC",
"D  c #649CB0",
"F  c #699FB1",
"G  c #6AA2B5",
"H  c #6DA6BA",
"J  c #6FA8BC",
"K  c #70AABF",
"L  c #7FACBB",
"P  c #72AEC3",
"I  c #6FB3CA",
"U  c #74B1C6",
"Y  c #7DB2C5",
"T  c #75B5CC",
"R  c #7AB7CC",
"E  c #77B8CF",
"W  c #79B8CE",
"Q  c #77B9D0",
"!  c #7BBCD3",
"~  c #7DC0D7",
"^  c #7EC2D9",
"/  c #838787",
"(  c #8D9090",
")  c #959898",
"_  c #929FA2",
"`  c #86A5AE",
"'  c #8DA5AB",
"]  c #96A2A5",
"[  c #9AA4A6",
"{  c #93A6AC",
"}  c #9BA6A9",
"|  c #96A9AF",
" . c #9BA9AC",
".. c #8AA7B0",
"X. c #86AAB5",
"o. c #8DABB5",
"O. c #83ADBB",
"+. c #8CAEBA",
"@. c #92ABB4",
"#. c #9AAEB4",
"$. c #87B1BF",
"%. c #89B0BE",
"&. c #99B0B7",
"*. c #96B1B9",
"=. c #A3A5A5",
"-. c #A2ABAD",
";. c #A2AEB1",
":. c #A3B2B6",
">. c #AAB3B5",
",. c #ACB7B9",
"<. c #A4B8BF",
"1. c #AFB8BB",
"2. c #B1B5B5",
"3. c #B4BBBD",
"4. c #B9BDBD",
"5. c #83B3C4",
"6. c #8AB4C2",
"7. c #91B5C1",
"8. c #97B9C5",
"9. c #83BDD2",
"0. c #B7BFC1",
"q. c #8AC1D4",
"w. c #81C5DC",
"e. c #91C5D7",
"r. c #94C6D8",
"t. c #96C8D9",
"y. c #9DCBDB",
"u. c #B4C1C5",
"i. c #BBC3C4",
"p. c #A3CDDC",
"a. c #ABCFDB",
"s. c #84C9E1",
"d. c #89D2EC",
"f. c #ABD3E0",
"g. c #B2D6E2",
"h. c #BADAE6",
"j. c #C2C4C4",
"k. c #C1C7C8",
"l. c #C4CACB",
"z. c #C8CCCD",
"x. c #C5CFD2",
"c. c #C8CFD0",
"v. c #CCD2D4",
"b. c #C5D5DA",
"n. c #D1D7D8",
"m. c #D5DADC",
"M. c #DADDDD",
"N. c #DEE0DF",
"B. c #C1DEE9",
"V. c #DDDFE0",
"C. c #C5E0EA",
"Z. c #CBE3EC",
"A. c #DDE1E1",
"S. c #D2E7EE",
"D. c #D4E8EF",
"F. c #D6E9F0",
"G. c #DBECF2",
"H. c #E3E4E4",
"J. c #E8E7E7",
"K. c #E4E7E8",
"L. c #E6E8E9",
"P. c #ECEDED",
"I. c #E0EEF3",
"U. c #E6F2F6",
"Y. c #ECF1F3",
"T. c #EEF6F9",
"R. c #F2F3F3",
"E. c #F3F7F9",
"W. c #F5F9FB",
"Q. c #FEFEFE",
/* pixels */
"# # # # # # # # # # # # # # # # # # # # # # # # # # # # # # # # # # # # # # # # # # # # # # # # # # # # # # # # # # # # # # # # ",
"# # # # # # # # # # # # # # # # # # # # # % # # # # # @ O O # # # # # # # # # # # # # # # # # % # # # # # # # # # # # # # # # # ",
"# # # # # # # # # # # # # # # # # # # # # # # # # # # * * * # # # # # # # # # # # # # # # # # # # # # # # # # # # # # # # # # # ",
"# # # # # # # # # # # # % # # # # # # # # # # # # + > f n k 5 # @ @ O O # # # # # # # # # # # # # # # # # # # # # # # # # # # # ",
"# # # # # # # # # # # # # # # # # # # # # # # # @ o 5 H d.W t O @ = > * # # # # # # # # # # # # # # # # # # # % # # # # # # # # ",
"# # # # # # # # # # # # # # # # # # # # # # # # # O 5 H d.W t O o q N q O O # # # # # # # # # # # # # # # # # # # # # # # % # # ",
"# # # # # # # # # # # # # # # # # # # # # # # # # O > k B b 5 O O a T B 6 % O # # # # # # # # # # # # # # # # # # # # # # # # # ",
"# # # # # # # # # # # # # # # # # # # # # # # # # # # = - = * O @ e T ^ C 5 O # # # # # # # # # # # # # # # # # # # # # # # # # ",
"# # # # # # # # # # # # # % # # # # # # # # # # # # # O O O O X X w U s.T N 0 # o # # # # # # # # # # # # # # # # # # # # # # % ",
"# # # # # # # # # # # # # # # # # # # # # # # # # # # # + # = ; - f U ~ ! ~ B 2 # # # # # # # # # # # # # # # # # # # # # # # # ",
"# # # # # # # # # # # # # # # # # # # # # # # # # # # # O # s Z C G R Q ! ~ U C 0 # @ # # # # # # # # # # # # # # # # # # # # # ",
"# # # # # # # # # # # # # # # # # # # # # # # # # # @ O = w A w.^ ! T Y L R w.! s O + # # # # # # # # # # # # # # # # # # # # # ",
"# # # # # # # # # # # # # # # # # # # # # # # # # # O # e G W ! ! Q R +.#.5.~ T s # @ # # # # # # # # # # # # # # # # # # # # # ",
"# # # # # % # # # # # # # # # # # # # # # # # @ O X = t A ! ~ W E r.h.b.z.8.5.R C s : @ # # # # # # # # # % # # # # # # # # # # ",
"# % # # # # # # # # # # # # # # # # # # # # @ * - - 0 G ^ ! T T T f.T.Q.P.3.' W ^ G 6 O @ # # # # # # # # # # # # # # # # # # # ",
"# # # # # # # # # # # # # # # # # # # # # + O 9 N B A T ! ! T T I f.W.Q.R.3...W ^ J 6 O @ # # # # # % # # # # # # # # # # # # # ",
"# # # # # # # # # # # # # # # # # # @ + O $ 4 n ! w.! W T E q.y.y.C.W.Q.R.3...R ^ G 6 o @ # # # # # # # # # # # # # # # % # # # ",
"# # # # # # # # # # # # # # # # # # # # + 2 C W ! ! ! E T ! B.T.T.W.Q.Q.R.3...R ^ G 6 o @ # # # # # # # # # # # # # # # # # # # ",
"# # # # # # # # # # # # # # # # + + 1 s s b T w.W T I I q.h.U.Q.Q.Q.Q.Q.P.3...R ^ G 4 X @ # # # # O @ # # # # # # # # # # # # # ",
"# # # # # # # # # # # # # # # # @ - k U ! T W R W 9.9.9.h.E.Q.Q.Q.Q.Q.Q.P.3...R ^ G q % # # # # * - * # # # # # # # # # # # # # ",
"# # # # # # # # # # # # # # @ X > v J ~ w.! W T W g.D.D.U.Q.Q.Q.Q.Q.Q.Q.R.3...R Q U A s * + @ + 5 n t % @ # # # # # # # # # # # ",
"# # # # # # # # # # # # # + # > f U ^ W W W E 9.p.I.Q.Q.Q.Q.Q.Q.Q.Q.Q.R.m.<.X.W Q ~ ^ B ; O @ + 6 M s % O # # # # # # # # # # # ",
"# # # # # # # # # # # # # o - v U W ! W E T T f.U.W.Q.Q.Q.Q.Q.Q.Q.Q.W.v.&.6.W W W ! ^ B - O # # * > - # # # # # # # # # # # # # ",
"# # % # # # # # # # # + + < j K w.! W W Q U L b.Q.Q.Q.Q.Q.Q.Q.Q.Q.Q.W.j.' Y E W W ! ~ m * X # # O . O # # # # # # # # # # # # # ",
"# # # # # # # # # # # # = k T ! W W W W W 5.#.v.W.Q.Q.Q.Q.Q.Q.Q.Q.Q.E.z.[ Y W W W ! ~ B < @ # # % = & # # # # # # # # # # # # # ",
"# # # # # # # # # # O 1 v H ! ! W W E W O.<.n.P.Q.Q.Q.Q.Q.Q.Q.Q.Q.Q.E.z.{ Y E W W W W K N 9 @ o 4 c e # @ # # # % # # # # # # # ",
"# # # # # # # # # # O 0 P w.W W W W W $.' i.R.Q.Q.Q.Q.Q.Q.Q.Q.Q.Q.Q.W.z.{ Y Q E W W W ~ ! h @ X q J c # o # # # # # # # # # # # ",
"# # # # # # # # # O o 0 K w.W W E E $.{ ] 3.R.Q.Q.Q.Q.Q.Q.Q.Q.Q.Q.Q.W.z.{ Y Q W W W W ~ W f @ o q J c # O # # # # # # # # # # # ",
"# # # # # # # # @ * 9 b U ! W W W W +.] _ 4.R.Q.Q.Q.Q.Q.Q.Q.Q.Q.Q.Q.W.c.{ O.6.6.5.Q W ~ W s o . 0 H A r - O @ # # # % # # # # # ",
"# # # # # # # # O > B ! W W W W E E %. .[ 3.R.Q.Q.Q.Q.Q.Q.Q.Q.Q.Q.Q.R.l.[ [ { [ %.R E ~ T h % o 6 H ^ H w # # # # # # # # # # # ",
"# # # # # # # # O > A w.! W W W T E p.n.>.1.Y.Q.Q.Q.Q.Q.Q.Q.Q.Q.Q.P.i.,.} ] [ } | %.R Q W G j = 5 G s.Q S s - O # # # # # # # # ",
"# # # # # % # # X : B ^ ! W R T W q.S.E.z.i.A.R.Q.Q.Q.Q.Q.Q.Q.W.P.c.[ _  .>.>.} [  .$.Y W w.J t e H ~ ~ ^ C > O # # # # # # # # ",
"# # # # # # # # X : B w.! W T T e.F.W.Q.R.m.4.v.W.Q.Q.Q.Q.Q.Q.Y.i. .] _ >.A.n.-.] } | +.W ! W G G U ! ! w.Z > o # # # # # # # # ",
"# # # # # # @ # 1 s G ! W R ! t.C.Q.Q.Q.Q.R.n.N.Q.Q.Q.Q.Q.Q.Q.R.v.i.k.z.m.W.Y.z.>.} [ @.R Q ! ! ! ! W W w.B ; X # # # # # # # # ",
"# # # # # # O * h U ! W W T q.S.W.Q.Q.Q.Q.Q.P.E.Q.Q.Q.Q.Q.Q.Q.Q.W.E.W.R.R.Q.Q.E.l.} } @.R W R ! W W W ! ~ Z 1 + # # # # # # # # ",
"# # # # # # O $ c w.~ W T I q.G.Q.Q.Q.Q.Q.M.( >.E.Q.Q.Q.Q.Q.Q.Q.Q.Q.Q.2.( M.Q.W.v.} ] @.R 5.%.5.W W W W ! K m 9 # + # # # # # # ",
"# # # # # # + * k R ! ! E T q.F.Q.Q.Q.W.H.) ; z P.Q.Q.Q.Q.Q.Q.Q.Q.R.z.i , j.Q.W.c.} ] @.5.@.| 6.E W W W W ! ~ c # + # # # # # # ",
"# # # # # # O # k ! ! W W I 9.G.Q.Q.Q.P./ , + x R.Q.Q.Q.Q.Q.Q.Q.Q.4.y @ 3 j.Q.Q.c.} ] @.@. .| 5.E W W W W ~ ! c * + # # # # # # ",
"# # # # # # + % k ! ! R W T q.G.Q.Q.Q.H.i   O V R.Q.Q.Q.Q.Q.Q.Q.Q.=.$   7 l.Q.W.c.} } } } =.| 5.Q W W W W ! ! k # + # # # # # # ",
"# # # # # # + % k ! ! ! T T q.F.Q.Q.Q.H.d . O V R.Q.Q.Q.Q.Q.Q.Q.Q.=.$   7 l.Q.W.c.} ] } } } | 5.E W W W W ! ! k % + # # # # # # ",
"# # # # # # + * c w.! W W U ! p.Z.E.Q.J.d . O V R.Q.Q.Q.Q.Q.Q.Q.W.=.$   y j.Q.W.z.} [  .} [  .5.W W W W W ! w.v % + # # # # # # ",
"# # # # # # + # s H W ! W ! T I y.T.Q.H.d   o V R.Q.Q.Q.Q.Q.Q.Q.Q.=.$   3 z.Q.E.z.} [ } }  .@.5.T W W W ! R H s # + # + # # # # ",
"# # # # # # # # - e S w.W W T U y.T.Q.J.p . X x R.Q.Q.Q.Q.Q.Q.Q.Q.=.$   3 j.Q.W.v.} [ } } o.5.W ! W W ! ! S e - # # # + + # # # ",
"# # # # # # # # X ; Z w.! W W T e.Z.T.P.) u p -.E.Q.Q.Q.Q.Q.Q.Q.Q.j.l u x M.W.A.0.} [  .@.5.Q W W W W ! w.Z - X # @ = 0 4 # # # ",
"# # # # # # # # X : C ! ! ! W W W 9.B.W.P.H.H.P.Q.Q.Q.Q.Q.Q.Q.Q.Q.R.J.H.J.E.A.,.} }  .@.R W W W W W W ! ! C : O @ + 4 A c * + # ",
"# # # # # # + o O * q N W ! W W T T e.h.E.Q.Q.Q.Q.Q.Q.Q.Q.Q.Q.Q.Q.Q.Q.Q.Q.A.0.} ] } @.5.W W W W W W ! W N q = + # @ : t 0 % + # ",
"# # # # # # = : = # + 6 A W ! ! ! W T 9.Z.U.T.W.Q.Q.Q.Q.Q.Q.Q.Q.Q.Q.Q.W.H.3.] [  .@.Y T W W W W ! ! ! A 6 + # # # + # - = # # # ",
"# # # # @ + 9 M r + X * 6 M ^ w.! W T ! e.y.p.Z.Q.Q.Q.Q.Q.Q.Q.Q.Q.Q.Q.m.3.[ ' 5.5.5.W ! W W W W ! ! N 6 % O # # # X > c a * + # ",
"# # # # @ @ 8 n e # @ O O q B B A U ! W E I I y.D.W.Q.Q.Q.Q.Q.Q.Q.E.H.3.] { +.W Q ! W W W ! ! ^ W Z 0 X X + + O @ : g T b = O # ",
"# # # # # # & > = # # # # * - - e J ~ W R E R E r.D.Q.Q.Q.Q.Q.Q.Q.A.,.} { 5.W ! E T W W W W ! ! Z 4 # + # # # O = c E 9.b % O # ",
"# # # # # @ 1 e < o @ # # o .   2 G ^ W E W W I ! D.Q.Q.Q.Q.Q.Q.Q.m. .' 6.T E T W W W ! W B f s 6 + > f g f f s h F s.! c # O # ",
"# # # # @ O e G k = @ @ @ * = * w J ~ W W W W U 9.C.E.Q.Q.Q.Q.Q.Q.M. .O.W Q W W W W W 9.T k : - = ; h T ! R R W R Q ! ! b : # @ ",
"# # # # + X q U P c : . O q M N A U Q E %.%.R E W e.h.T.Q.Q.Q.Q.Q.H.-.O.T ! W W E R +.%.W D b b b M F ! ^ ! ! ! 9.R R Q J b 4 X ",
"# # # # % < k U s.P s 1 6 m ~ ^ ! W W 6. .@.Y W T I t.U.Q.Q.Q.W.J.x.@.Y ! T W W Q R | | 6.R ! ^ ^ ! ! 5.5.9.W Q Q Q Q Q ! Q j 4 ",
"# # # O > m U W ! T P D G U ! ! ! W %.| [ @.R W T I t.U.Q.Q.Q.R.i.*.5.W W W W W ! R @.=.| 6.! ! ! Q 6.| | +.9.T Q Q R T ! ! P F ",
"# # # O 1 S w.! W ! ! ^ ! T W p.a.6.@.} =.@.R Q W T q.g.G.Q.Q.P.>.` E Q W W W W 5.+.| } } @.$.$.6.6.@.[ _ [ X.O.O.O.Y E Q ! ! 9.",
"# # @ o > Z ~ ! W T E ! 9.! t.G.L.>.] } } @.5.! E E R E g.Y.E.K.,.X.R E W W E W +.}  .[  . . .}  .} } } -.-.;.;.;.;.&.5.Q R W Q ",
"# # # X > Z w.W W T T q.B.Z.F.Q.J.-._ } }  .@.5.W E T T 8.i.j.u.7.Y W W W W E W %.} [  . .[ } } } } ]  .z.A.A.A.N.N.c.&...X.Y Q ",
"# # # - e S ~ W T W q.h.W.Q.Q.Q.P.i.-.] [ } } o.E E E W $...{ o.R Q W W W W W 5.@.} }  .[ } } [ ] ] :.i.P.Q.Q.Q.Q.Q.P.k.2.1.7.Y ",
"# O * s H W ! W T 9.Z.E.Q.Q.Q.Q.W.Y.l.} ] } } %.W E W W W Y Y R R W W W E E 5.@. .} } } -.}  .[ ] } i.P.W.Q.Q.Q.Q.Q.Q.R.P.L.0.' ",
"# o # v w.~ T W e.h.E.Q.Q.Q.Q.Q.Q.Q.L.k.;.] ] | $.W W E W Q Q Q E W ! W W 5.+. .[  .} } } ]  .0.l.l.J.Q.Q.Q.Q.Q.Q.Q.Q.Q.Q.Q.V.k.",
"# # - b ! ! T R h.W.Q.Q.Q.Q.Q.Q.Q.Q.Q.Y.i. . . .| $.R R R R W R W R W R 5.@.} } } |  .} } [ ,.H.W.W.Q.Q.Q.Q.Q.Q.Q.Q.Q.Q.Q.Q.Q.W.",
"@ 4 b G W ! T W Z.Q.Q.Q.Q.Q.Q.Q.Q.Q.Q.Q.P.N.N.i. .| +.@.@.+.@.@.@.o.@.+.@. .} } } } } [  .i.A.W.Q.Q.Q.Q.Q.Q.Q.Q.Q.Q.Q.Q.Q.Q.Q.Q.",
"+ e T ^ W E T ! C.Q.Q.Q.Q.Q.Q.Q.Q.Q.Q.Q.Q.Q.Q.m. .[ } } } }  .} }  .} } } } }  .}  .} ]  .n.Q.Q.Q.Q.Q.Q.Q.Q.Q.Q.Q.Q.Q.Q.Q.Q.Q.Q."
};
