/* XPM */
static char *wall_resized[] = {
/* columns rows colors chars-per-pixel */
"64 64 63 1 ",
"  c None",
". c #56483F",
"X c #574944",
"o c #594C46",
"O c #5F514B",
"+ c #62554C",
"@ c #645752",
"# c #665953",
"$ c #695E53",
"% c #6D6159",
"& c #706856",
"* c #70655E",
"= c #746C5D",
"- c #716760",
"; c #756A64",
": c #786C67",
"> c #796E69",
", c #7B7462",
"< c #7E7864",
"1 c #7C726E",
"2 c #7F7571",
"3 c #817B66",
"4 c #837B6B",
"5 c #837C74",
"6 c #88836F",
"7 c #878174",
"8 c #8B8573",
"9 c #8D8876",
"0 c #8E8779",
"q c #8E8979",
"w c #938D7E",
"e c #958F81",
"r c #988F88",
"t c #979183",
"y c #989385",
"u c #9B958A",
"i c #9D988C",
"p c #9F9691",
"a c #A09A8E",
"s c #A09792",
"d c #A49C95",
"f c #A59D99",
"g c #A7A097",
"h c #A7A199",
"j c #AAA39C",
"k c #AEA89F",
"l c #ADA7A1",
"z c #AEA9A2",
"x c #ADAAA9",
"c c #B0A7A3",
"v c #B2ABA5",
"b c #B5AEA9",
"n c #B6B1AD",
"m c #B8B2AE",
"M c #B6B5B1",
"N c #BAB5B2",
"B c #BBB9B6",
"V c #BEBCBA",
"C c #C0BEBD",
"Z c #C2C0BF",
"A c #C4C3C3",
"S c #C6C8C8",
"D c #CACBCC",
/* pixels */
"vmADDAMbbf88gmmi@#sk88hbbbbbng88dnnbbmZSSZnbbg93<8gnnj966,+#48  ",
"bbnMMnbbbjwtcmmd:>dkttzNnbbbnjttknkjcnVZZCmbbkt99ivmmjw3<&++;,  ",
"bkuqqykbbcjzBCmkddccjlVZmvnnbcjbCntwjnnmmnnnbcjjnNZCBjw,$ooo++oo",
"nkt8quzMnbbmCCNmmnnbmmnnbkdskbjcCniyzmbbbcjjcbnnMBCCva8,#+++++##",
"nvjkbBZVmvbbmNCCNnbbmzyycd::dlttlNMBCVmbbjwtjbnkyuzzu86<,=,=,,,,",
"hjvbMBVVBmbvvmVBzjcvkaqtbf>:dleelNMBVVnbbg88jNmjwtzk966qwwww668w",
"8eklyylBZCmbbbNztwkkwwivCVfpcvjcVMiuzmbbng79bVmzjzVnq7ijjjka88ak",
"8tvztelBNnbvvbbjwtzzwtcBMMNNbvbNZntwkmmbnjwuBSNbbmZnq9kBnnbktycC",
"dzBBllVMiujbbbbvjlVVlcVmuumZmcvnMbhkBVNbbcjcZANbbnNj9qbZmnbvjcCA",
"NBCVmnBk88kMnzjjcNCCNNCnttBSBnbbbbbNCBzjzbnmVBzjzbbjeuBAmbbbbnmN",
"ACNnnzi9<qnZNhwejmNBmmmbjkVAZCnbbbbNNltwjbnnmlewjbbzjzAAmvbbnkiw",
"AZBnng839iVANhwtzbdifjcbbmCZSZmcjhfjvjwwcmbbbjwtzNbbbMNnnbvbng6<",
"NVCCmg89jVSZNzjzVx1%3yjbnnnBZAmje87tjzjkVZnbzzjlVVNvmcuukbbbbf8<",
"ifBCNg8wMDABnbbNAx1%4yvmbvvnVZVkt89uvmnnmnbbbbbnMMNblr<4gmbbnkt8",
"@4fCmg8qMSCbbbbnmbdifcVVnvvbbNZVljbBVVNktykbbbnjyiMNi,+-lAnvbvkg",
"X%ekbkwuBAmvbbbcjkbbkcVZNmbvvnVVmNVASANjwwkmbbbjquBBi4-5vZCnjjbn",
"=:4tjbjvZABbbbbjwtkkeekNZZmvvbnnbbmBAZmcjzBCnbbcjzZVvhlxbNAMtqkn",
"qwwuvmnnMvdslbnf89kctezNMMnbvbbbbbvbVCmbbmCCNnbbbNVVmNAANMMlttzN",
"jkbNVCmku4$:smmf69bVzzVBiyhnbbbbnbbbnmnbbbmBCCmbbbMMbmNBAMuwpzBA",
"bmCASANje5-2fmmjwaBANnMl77kMnvjggjcbbcjjccjzBBzjvbvvkjlNCMtezVCC",
"bbmNAZmcjflcvbbvjbCABlu8<qbZNjw88wjnbjwekkwtzztwjbnjwwhbNbklBZNn",
"bvbnVVmbbNAABbvbbmVCNh849iVANjt89uvNmjwycztwzzttlNnf89knkjzNVZNn",
"vbvbnnnnbmNBZCnvbbmmmg89kVAANcjjbBCCncjzBBkkBBkkBCNf6wbmywjbNNVA",
"mnbbbcjjvvflBCNMbvvbng8wNDABnbbNVAAVnbbNCCBBVVBBCVNjtaBBuwzNbnBA",
"ZCbbbjwekjwwkNCVnvbbnf6wmSBnbbbbmNNmbbbmmBZCNBZANnbvkbAVlkBCmnnm",
"ZCNnnjwtccttkVVCNnbbbjwiBAmcvvbvncjjcbjgdkBVnbnmnbbvjzNVmmCBcjkb",
"mNCCmcjcBVkkBVNNCVnbbcjzZZmbbbbbbjwejkt88tzNnjtiMCNjeekmnnNcyejb",
"vnCCmvbNCCmmVVBNCVnvbbbbmnbbvbvbnjwybbt89uzmngwtMSNhwezmbbbf88kN",
"vbNNnbbmNNnbmNCCNnbvbbnkytkbbbbbnvkzVVzjbNVCnzhzVANzgzBVnbbd8wbA",
"mbdplvkffjcbbbMnbvbvbbbjwwzmbbbzjfjklzbNCSAVnbbnVVBnnmCVmbbkwuBD",
"Sz1:dly86wkbbkyykbbbbbbchzBVnbbkw885-1dMNBNnbbbbnNZCnbmmnnbzkzCD",
"Av1>dly89uzNmg88jnbbvbvbnNVZNnbjt9w7-1fbjjlvbbbbbnmnbbbcjjzbbnnn",
"nbffcvjjnBZZmf89bCmvbvbbbmNNCCmcjkbnzxblwwgbbbbnbjtykbnjwwjbmkyq",
"mnkkcbbmVAZZmjwuBSBmbbbckjlnCCmvbmCSSVzuwezNncjkbjwezNnjwtzBmjw8",
"AmywjbbnmBNmncjzCSAVbbbkeehbNNbbbbmNNztwazVCmjttjvjcVZmzjzVZmkjf",
"AmiyvmbbbzjjcbbbnMVVnbbg88kbjjvbbbbbbketlCZZNd44jNNbmnbbbnnnbbbn",
"mmMBZVnbbjwwhnnkytznbbbf8qnMywjbbbbvbbkzVCBNNi%*lABzytjnmkyyjbbb",
"bbnBCVnbbg89kNmjwtlNnbmjeuBBuelbljvzkfgzVBljvs>1zCbpqtznkawwcmbb",
"njyucmbbng89bVNcgzBVNbbzkzZVzlVMyekkt88tvzewjcdfbvtwucVmywucVVmv",
"njwtkmnnnjwuNSNbbNZBljzbbMVVmNCnyezvt8quvvewcNmmbf88kCAntwzCZCNm",
"nzjkBCmbbvjzCANbbnmzwwjbbnmmbbNnlzVBzjbBZBlkNCNbbg6wnZCbjlVANNVA",
"bnnNCBkjcbbNVBljcbbjwtcNnvvbbvjjjzVVmmVAAVMmCCmbbjwuBZnvbmMbbbVA",
"bnnmNzewjbbbNlewjbbcjzVZmbvbbke88tlNbnmNBNnnmmbbbcjcCZmbbkyyjbnM",
"gggjcjwezNnbbjwezNbbnmMNbvbbbj838uvmnbbkspzbbvvbnnbmCCmbbkwwlNbv",
"988tjbjkVVNvvvhzVCnbnciujbbbng88hBZCnnns::dmbbvbnnbnmmbbmbflBCbv",
"89qucmnnMMbvbbbbMMNnky<4hNbbbjtuBSVxznnp:-rkvbmcsdcvjjvcddcNCVmb",
"jkvNVVNkttjbbbbktiMMi,+*lAmvbbjvAVuyknnzfy0wjmmd:>fvweld>>dNNmbv",
"bnCSSANgwelNbbbhwuBBi4*5xZCbjjvNZnuylmnbmkeelmcy;;uawrbf-$imbbbb",
"bbnVZZmkgcNCmbbkgvZVzjlxnBZmywjnmmmBCCbbnvjzVMyqrr9wavCn7<dnbbnn",
"bbvbCCmbnmCCNmbbnmVVmNZZBmMltwkmnbmBCCnbbbnNZmytbbtwcBBlttzNnksu",
"bbbbnnnnbbmCCCmbbbnmnmmVZMiwicVCmhyuknbbvbnmmnkvCCkkVMiwdbBZNd:#",
"fjvbbcjjvvgkBBcjcbbcjjvmZnywzVCVNjwwkmbbbcjjzzjzNCBBAnywzBZVNd>@",
"8tjnngwtjkwtcktwjnbjtthnBnjkBZBnnbgkNCnbbjwwjjttkBCACvjcBANnmcdu",
"8tcmmjwtzztecvtwzNng78knkhvNVZMbjjcNCCNmngwtzvtwjBCBkjvmVVNbjjbm",
"fkBCmcgcBBkkBBkkBZmg6qnnywhnmBZntwjnnNCCmkkcBBkjBCCkwwjmNBCnrejm",
"bmZCmbnmVZBBVZBBZVmjtuBBywzNnmCnywzmbnCZmnnmZZBBCCmfwecmbNCnyecN",
"bbmNbbbMNVZCNNAZBnbcjbZZzkBCNbnbkkVCbbmNNmmnmBZZBmbkjkBCNbmbklBA",
"NbjjvvjfdkBVnbnmnnbcjcBCmmCBzjzvbMCCBbjdipfgfkBVzgzbbmCVzjzvvNVA",
"Anyejkt88tzmnkyunCmjwykmnnmctehbbbNBAmu4%%498wvztwjbbnmctejbbnNN",
"Anyyvvy88uzNnhqyBSNgwwkmnbnf88kNnljlVmi4;;5qwubkeekmnbbg88jNncjf",
"MbkzCVzjzBVVnzhzVAmkgkNCmbbd8qxZNjweknkjllhknNCNklBCmbbd89bZNjw8",
"nblllzbNZAAVnbbmCCBnnmCCnbbjtuBANjwtknzzZZMnVAACmmCVnvbjeuBANjt8",
"AMi4;2fmBmmnbbbbnNCCmbnnbvbvjzVANzjzBnutzNnbnNNmbbmnbbbcjvCAmcjj",
"DNt&.#inbbvvvbbbcnZZmbvvbbbbbNACNvbNSMq8fbbbvbvvbbvvbbbbnNZCmbbn"
};
